TITLE ""
FILE "DISC2Track33.mp3" MP3
  TRACK 01 AUDIO
    TITLE "DISC2Track33_01"
    INDEX 01 00:00:00
  TRACK 02 AUDIO
    TITLE "DISC2Track33_02"
    INDEX 01 00:01:70
  TRACK 03 AUDIO
    TITLE "DISC2Track33_03"
    INDEX 01 00:02:07
  TRACK 04 AUDIO
    TITLE "DISC2Track33_04"
    INDEX 01 00:05:62
  TRACK 05 AUDIO
    TITLE "DISC2Track33_05"
    INDEX 01 00:09:25
  TRACK 06 AUDIO
    TITLE "DISC2Track33_06"
    INDEX 01 00:12:25
  TRACK 07 AUDIO
    TITLE "DISC2Track33_07"
    INDEX 01 00:12:41
  TRACK 08 AUDIO
    TITLE "DISC2Track33_08"
    INDEX 01 00:16:64
  TRACK 09 AUDIO
    TITLE "DISC2Track33_09"
    INDEX 01 00:20:29
  TRACK 10 AUDIO
    TITLE "DISC2Track33_10"
    INDEX 01 00:23:43
  TRACK 11 AUDIO
    TITLE "DISC2Track33_11"
    INDEX 01 00:23:58
  TRACK 12 AUDIO
    TITLE "DISC2Track33_12"
    INDEX 01 00:26:70
  TRACK 13 AUDIO
    TITLE "DISC2Track33_13"
    INDEX 01 00:30:31
  TRACK 14 AUDIO
    TITLE "DISC2Track33_14"
    INDEX 01 00:33:33
  TRACK 15 AUDIO
    TITLE "DISC2Track33_15"
    INDEX 01 00:33:51
  TRACK 16 AUDIO
    TITLE "DISC2Track33_16"
    INDEX 01 00:38:01
  TRACK 17 AUDIO
    TITLE "DISC2Track33_17"
    INDEX 01 00:41:43
  TRACK 18 AUDIO
    TITLE "DISC2Track33_18"
    INDEX 01 00:44:47
  TRACK 19 AUDIO
    TITLE "DISC2Track33_19"
    INDEX 01 00:44:62
  TRACK 20 AUDIO
    TITLE "DISC2Track33_20"
    INDEX 01 00:47:10
  TRACK 21 AUDIO
    TITLE "DISC2Track33_21"
    INDEX 01 00:49:42
  TRACK 22 AUDIO
    TITLE "DISC2Track33_22"
    INDEX 01 00:51:37
  TRACK 23 AUDIO
    TITLE "DISC2Track33_23"
    INDEX 01 00:51:51
  TRACK 24 AUDIO
    TITLE "DISC2Track33_24"
    INDEX 01 00:55:13
  TRACK 25 AUDIO
    TITLE "DISC2Track33_25"
    INDEX 01 00:59:01
  TRACK 26 AUDIO
    TITLE "DISC2Track33_26"
    INDEX 01 01:02:31
  TRACK 27 AUDIO
    TITLE "DISC2Track33_27"
    INDEX 01 01:02:45
  TRACK 28 AUDIO
    TITLE "DISC2Track33_28"
    INDEX 01 01:06:43
  TRACK 29 AUDIO
    TITLE "DISC2Track33_29"
    INDEX 01 01:09:37
  TRACK 30 AUDIO
    TITLE "DISC2Track33_30"
    INDEX 01 01:12:10
  TRACK 31 AUDIO
    TITLE "DISC2Track33_31"
    INDEX 01 01:12:24
  TRACK 32 AUDIO
    TITLE "DISC2Track33_32"
    INDEX 01 01:16:60
  TRACK 33 AUDIO
    TITLE "DISC2Track33_33"
    INDEX 01 01:20:27
  TRACK 34 AUDIO
    TITLE "DISC2Track33_34"
    INDEX 01 01:23:35
  TRACK 35 AUDIO
    TITLE "DISC2Track33_35"
    INDEX 01 01:23:51
  TRACK 36 AUDIO
    TITLE "DISC2Track33_36"
    INDEX 01 01:26:45
  TRACK 37 AUDIO
    TITLE "DISC2Track33_37"
    INDEX 01 01:29:10
  TRACK 38 AUDIO
    TITLE "DISC2Track33_38"
    INDEX 01 01:31:27
  TRACK 39 AUDIO
    TITLE "DISC2Track33_39"
    INDEX 01 01:31:48
  TRACK 40 AUDIO
    TITLE "DISC2Track33_40"
    INDEX 01 01:34:54
  TRACK 41 AUDIO
    TITLE "DISC2Track33_41"
    INDEX 01 01:37:49
  TRACK 42 AUDIO
    TITLE "DISC2Track33_42"
    INDEX 01 01:40:10
  TRACK 43 AUDIO
    TITLE "DISC2Track33_43"
    INDEX 01 01:40:28
  TRACK 44 AUDIO
    TITLE "DISC2Track33_44"
    INDEX 01 01:42:38
  TRACK 45 AUDIO
    TITLE "DISC2Track33_45"
    INDEX 01 01:44:59
  TRACK 46 AUDIO
    TITLE "DISC2Track33_46"
    INDEX 01 01:46:44
